<?xml version="1.0" encoding="utf-8"?>

<svg version="1.1" id="横浜市地域区分図" xmlns="http://www.w3.org/2000/svg" xmlns:xlink="http://www.w3.org/1999/xlink"
	 x="0px" y="0px" viewBox="0 0 2800 1900" style="enable-background:new 0 0 2800 1900;" xml:space="preserve">
<style type="text/css">
	.st0{fill:#00a9eb;stroke:#00a9eb;stroke-width:5;stroke-linejoin:round;}
	.st1{fill:#00a9eb;stroke:#00a9eb;stroke-width:5;stroke-linejoin:round;}
</style>
<desc>Author: covid19yokohama</desc>

  <g>
   <path id="tsurumi" class="st0" d="M1991.12,393.596 L2038.01,392.008 L2034.75,419.959 L2038.61,426.406 L2030.97,437.35 L2030.31,449.333 L2048.58,463.684 L2046.65,472.007 L2061.97,478.17 L2055.8,487.347 L2068.13,514.307 L2064.18,518.107 L2066.42,524.874 L2080.67,522.01 L2112.16,608.206 L2124.65,607.356 L2126.49,627.983 L2155.19,617.291 L2163.7,639.155 L2206.24,703.755 L2110.18,746.579 L2101.21,721.413 L2122.73,712.002 L2120.55,702.695 L2099.52,712.286 L2090.61,693.536 L2081.83,695.301 L2072,699.23 L2077.3,713.233 L2076.25,720.344 L2074.3,711.166 L2073.28,715.923 L2065.49,707.107 L2057.41,675.206 L2058.75,700.305 L2051.55,703.389 L2059.66,710.34 L2071.38,739.374 L2088.35,755.218 L2087.99,763.299 L2067,779.092 L2048.51,778.697 L2047.87,773.48 L2018.09,782.631 L2018.11,817.275 L1979.39,827.687 L1981.03,840.572 L1978.99,832.737 L1968.18,841.899 L1933.45,849.353 L1929.01,843.486 L1930.2,813.013 L1963.38,803.067 L1958.31,787.177 L1951.83,787.337 L1940.75,769.28 L1943.45,762.727 L1972.91,750.792 L1970.3,745.771 L1933.84,757.698 L1916.56,730.555 L1905.95,729.007 L1884.06,702.462 L1888.24,691.466 L1876.76,691.699 L1873.66,683.297 L1864.68,679.696 L1864.76,659.921 L1842.3,654.827 L1837.73,647.054 L1822.38,639.195 L1782.27,632.464 L1774.38,624.791 L1783,612.927 L1759.76,612.96 L1749.14,605.722 L1750.85,589.742 L1736.29,578.006 L1724.31,547.28 L1742.93,544.899 L1757.33,530.638 L1768.66,528.756 L1770.28,518.296 L1760.89,515.509 L1758.68,502.625 L1773.52,507.673 L1777.31,499.244 L1800.43,497.887 L1798.36,466.407 L1803.24,448.571 L1795.25,435.013 L1808.39,428.178 L1819.2,409.548 L1851.84,399.321 L1912.24,425.957 L1920.99,436.29 L1932.5,424.903 L1946.88,421.017 L1947.67,412.749 L1974.42,409.765 L1974.26,403.423 L1979.14,403.992 L1979.12,387.803 L1991.12,393.596"/>
   <path id="kanagawa" class="st0" d="M1758.01,611.194 L1783,612.927 L1774.38,624.791 L1782.27,632.464 L1822.38,639.195 L1837.73,647.054 L1842.3,654.827 L1864.76,659.921 L1864.68,679.696 L1873.66,683.297 L1876.76,691.699 L1888.24,691.466 L1884.06,702.462 L1905.95,729.007 L1916.56,730.555 L1925.09,744.62 L1926.04,749.918 L1917.71,753.969 L1938.29,788.07 L1841.4,793.484 L1825.91,762.603 L1806.09,769.776 L1826.69,786.238 L1827.35,794.359 L1782.6,797.444 L1765.82,813.805 L1755.7,808.5 L1765.15,814.646 L1753.85,827.455 L1758.76,827.903 L1757.34,837.53 L1751.33,836.429 L1755.19,848.898 L1752.35,845.301 L1746.57,850.322 L1741.69,845.643 L1741.43,866.155 L1715.81,864.074 L1711.97,867.462 L1701.19,853.424 L1671.18,862.992 L1647.72,848.231 L1603.69,844.007 L1602.19,835.135 L1593.01,831.878 L1592.86,822.715 L1577.34,826.498 L1569.71,822.129 L1543.91,833.48 L1542.54,842.024 L1529.02,849.581 L1515.55,844.442 L1501.52,850.047 L1495.19,847.969 L1495.29,842.42 L1515.19,795.887 L1502.92,765.912 L1481.67,749.55 L1473.03,765.011 L1448.35,760.813 L1410.35,793.868 L1400.03,809.594 L1390.88,812.705 L1390.67,827.184 L1372.03,803.676 L1361.51,772.098 L1347.91,755.219 L1346.2,737.741 L1333.8,708.684 L1296.33,667.653 L1296.21,661.587 L1311.52,650.53 L1330.78,619.451 L1386.84,624.201 L1394.2,618.021 L1430.07,620.271 L1440.58,621.858 L1450.41,636.621 L1460.75,639.251 L1467.94,631.409 L1477.77,647.42 L1503.78,650.482 L1521.17,658.836 L1539.7,655.538 L1540.67,649.869 L1551.3,655.446 L1556.87,649.925 L1563.05,659.038 L1562.91,672.022 L1558.52,676.231 L1573.21,681.344 L1584.24,695.899 L1625.98,673.798 L1634.68,700.029 L1660.18,712.691 L1682.65,703.887 L1682.43,699.49 L1672.6,696.658 L1690.86,694.85 L1695.51,685.041 L1708.34,690.372 L1722.71,689.208 L1732.69,676.995 L1732.04,641.732 L1743.8,609.648 L1748.4,605.395 L1758.01,611.194"/>
   <path id="nishi" class="st0" d="M1572.37,823.947 L1592.86,822.715 L1593.01,831.878 L1602.19,835.135 L1603.5,843.942 L1647.72,848.231 L1671.18,862.992 L1703.81,854.007 L1711.97,867.462 L1708.57,870.465 L1716.01,872.916 L1714.85,876.96 L1718.35,874.206 L1713.14,879.815 L1720.1,875.023 L1743.11,874.994 L1745.33,879.584 L1740.65,893.616 L1743.65,907.24 L1740.04,909.409 L1743.97,908.048 L1749.38,908.636 L1740.03,909.809 L1741.12,915.582 L1722.5,925.513 L1724.88,927.927 L1710.86,947.144 L1706.14,948.008 L1692.42,932.233 L1686.6,935.14 L1679.56,930.768 L1675.5,934.656 L1684.48,946.822 L1677.29,957.185 L1678.03,968.324 L1672.26,972.66 L1665.73,968.652 L1669.76,988.778 L1651.82,1009.91 L1643.73,1006.59 L1636.2,1014.04 L1628.12,1012.78 L1593.87,998.321 L1572.57,1009.47 L1536.27,1006.13 L1520.4,994.737 L1519.95,989.54 L1526.34,987.356 L1522.29,968.794 L1531.64,963.069 L1528.65,955.993 L1550.58,943.402 L1532.82,935.275 L1541.81,902.446 L1535.26,895.02 L1528.54,848.613 L1542.54,842.024 L1544.43,833.151 L1572.37,823.947"/>
   <path id="naka" class="st0" d="M1772.29,919.337 L1765.79,929.745 L1771.8,933.009 L1788.24,912.984 L1797.56,918.004 L1787.58,915.355 L1783.93,919.891 L1793.52,923.016 L1791.22,925.884 L1781.42,922.996 L1788.51,927.861 L1779.18,937.314 L1785.04,956.105 L1779.48,955.978 L1775.22,968.175 L1782.81,972.009 L1787.84,965.836 L1782.95,961.323 L1788.84,964.648 L1808.85,938.571 L1814.69,941.717 L1796.2,964.622 L1802.61,965.888 L1796.78,965.181 L1788.03,974.115 L1821.3,989.145 L1826.94,981.878 L1822.87,987.378 L1827.81,986.421 L1824.64,989.999 L1828.47,993.257 L1861.99,953.904 L1870.85,958.573 L1862.79,968.981 L1873.24,972.254 L1881.81,961.847 L1890.26,966.526 L1882.48,976.72 L1890.23,979.153 L1908.05,961.006 L1916.87,965.629 L1903.08,982.911 L1860.93,998.236 L1881.87,1017.76 L1900.25,1003.22 L1888.18,1007.36 L1892.77,1003.61 L1886.07,997.728 L1893.72,1004.22 L1897.71,1001.07 L1889.06,993.731 L1882.34,996.277 L1889.14,993.481 L1905.87,1007.73 L1945.74,954.106 L1961,960.178 L1963.26,956.676 L1961.37,960.121 L1970.83,964.182 L1934.26,1024.31 L1937.07,1029.95 L1950.77,1033.08 L1977.05,989.531 L1989.4,994.698 L1983.32,1004.87 L2013.8,1014.74 L1982.03,1071.37 L1991.01,1074.59 L1981.92,1071.55 L1977.36,1079.06 L1996.12,1086.72 L2000.68,1079.19 L1993.29,1075.94 L2000.79,1079.01 L2040.87,1012.88 L2051.54,1017.04 L2058.43,1010.19 L2052.02,1017.21 L2074.06,1030.35 L2050.34,1087.8 L2057.1,1090.09 L2050.37,1106.4 L2056.36,1090.1 L2050.35,1088.42 L2041.05,1110.31 L2014.58,1111.8 L2015.31,1120.09 L2010.13,1113.76 L2011.86,1108 L2002.17,1104.45 L1999.62,1109.2 L2015.64,1124.48 L2016.49,1134.73 L2010.29,1140.08 L1987.18,1126.1 L1976.35,1130.15 L2005.98,1160.2 L1994.22,1176.65 L2006.82,1180.47 L2017.74,1158.87 L2022.79,1160.64 L2008.26,1180.94 L2018.06,1183.92 L2027.99,1172.91 L2004.66,1198.92 L2003.35,1210.47 L1940.65,1261.04 L1934.97,1258.21 L1937.84,1262.87 L1922.01,1253.32 L1933.43,1258.87 L1923.36,1250.1 L1938.59,1237.97 L1925.65,1230.17 L1918.74,1235.89 L1925.09,1229.83 L1917.42,1225.19 L1901.45,1237.25 L1874.17,1221.52 L1872.27,1229.25 L1873.55,1221.15 L1865.34,1216.19 L1863.92,1221.71 L1864.81,1215.9 L1858.31,1211.95 L1856.9,1217.48 L1857.75,1211.63 L1851.3,1207.73 L1849.88,1213.25 L1850.68,1207.37 L1833.06,1196.75 L1805.7,1200.21 L1820.51,1216.41 L1819.38,1217.15 L1804.99,1200.3 L1768.49,1205.74 L1757.06,1185.13 L1750.51,1183.55 L1745.08,1159.01 L1709.3,1160.08 L1677.75,1126.7 L1679.37,1115.97 L1685.66,1112.46 L1675.71,1104.1 L1691.75,1105.62 L1716.83,1098.75 L1726.44,1087.46 L1734.07,1088.88 L1751.97,1072.71 L1747.28,1065.61 L1743.78,1069.63 L1730.06,1068.96 L1729.88,1046.6 L1712.4,1051.62 L1692.86,1025.78 L1644,1046.5 L1637.13,1033.61 L1651.56,1027.35 L1637.91,1009.86 L1643.73,1006.59 L1651.82,1009.91 L1668.39,991.613 L1670.4,978.296 L1665.73,968.652 L1672.26,972.66 L1677.82,968.589 L1677.29,957.185 L1684.48,946.822 L1675.5,934.656 L1679.56,930.768 L1686.6,935.14 L1692.42,932.233 L1708.89,947.794 L1724.88,927.927 L1743.84,919.25 L1758.64,925.766 L1769.04,912.869 L1772.29,919.337"/>
   <path id="minami" class="st0" d="M1619.32,1008.81 L1637.91,1011.42 L1651.56,1027.35 L1637.13,1033.61 L1644,1046.5 L1692.86,1025.78 L1712.4,1051.62 L1729.88,1046.6 L1730.06,1068.96 L1743.78,1069.63 L1747.28,1065.61 L1751.97,1072.71 L1715.35,1099.35 L1686.16,1106.18 L1672.75,1102.17 L1649,1111.74 L1628.51,1110.38 L1629.74,1116.96 L1603.98,1118.6 L1583.47,1138.22 L1568.81,1129.96 L1564.55,1142.53 L1545.05,1157.46 L1548.84,1160.12 L1544.36,1162.48 L1545.09,1178.03 L1535.68,1201.92 L1537.79,1216.14 L1543.4,1216.92 L1540.12,1225.55 L1527.63,1227.83 L1503.89,1208.24 L1486.19,1207.07 L1483.6,1193.67 L1495.64,1178.94 L1473.23,1174.82 L1470.69,1184.1 L1456.51,1181.4 L1444.91,1198.79 L1430.64,1203.95 L1420.05,1218.26 L1413.07,1215.96 L1405.8,1211.98 L1407.84,1206.43 L1382.59,1198.65 L1366.3,1171.88 L1365.33,1150.63 L1354.05,1137.26 L1343.86,1135.34 L1342.09,1140.43 L1331.03,1140.27 L1313.31,1128.79 L1308.91,1119.45 L1309.96,1115.06 L1336.13,1114.3 L1335.06,1121.76 L1340.65,1115.22 L1344.83,1120.23 L1334.53,1124.8 L1343.75,1127.26 L1349.49,1123.28 L1341.95,1106.87 L1342.17,1082.64 L1346.91,1073.75 L1357.72,1065.74 L1371.66,1068.86 L1382.38,1065.25 L1428.28,1014.51 L1444.69,1015 L1453.86,1022.57 L1478.69,1027.94 L1506.24,1026.49 L1517.03,1035.58 L1526.16,1028.15 L1523.22,1018.35 L1535.55,1013.97 L1541.36,1005.96 L1572.57,1009.47 L1593.87,998.321 L1619.32,1008.81"/>
   <path id="hodogaya" class="st0" d="M1203.85,658.177 L1213.89,665.266 L1232.13,666.031 L1243.73,675.621 L1252.88,695.494 L1269.38,689.306 L1278.54,669.079 L1295.85,662.795 L1296.91,669.218 L1333.93,708.908 L1346.2,737.741 L1347.91,755.219 L1361.51,772.098 L1372.03,803.676 L1390.67,827.184 L1390.88,812.705 L1400.03,809.594 L1410.35,793.868 L1449.7,760.128 L1473.03,765.011 L1481.67,749.55 L1508.08,770.973 L1515.15,796.302 L1495.19,847.969 L1515.55,844.442 L1531.16,852.789 L1535.26,895.02 L1541.81,902.446 L1532.82,935.275 L1550.58,943.402 L1528.65,955.993 L1531.64,963.069 L1522.29,968.794 L1526.34,987.356 L1519.62,990.01 L1521.87,998.175 L1541.36,1005.96 L1535.55,1013.97 L1523.22,1018.35 L1526.16,1028.15 L1522.22,1033.71 L1517.03,1035.58 L1504.64,1026.2 L1459.49,1024.64 L1444.69,1015 L1428.85,1014.35 L1405.29,1035.76 L1390.04,1059.47 L1374.22,1068.46 L1355.24,1066.79 L1342.17,1082.64 L1337.11,1080.17 L1322.02,1039.5 L1258.67,1054.27 L1237.17,1038.83 L1233.37,1015.39 L1218.91,1006.11 L1194.42,1007.53 L1193.34,996.168 L1177.09,991.619 L1175.31,978.924 L1163.03,978.613 L1152.29,967.445 L1153.1,957.224 L1176.95,950.284 L1192.72,938.848 L1224.36,936.542 L1256.13,941.084 L1267.31,928.363 L1286.77,927.028 L1285.42,906.678 L1302.41,898.153 L1298.97,872.858 L1287.76,877.339 L1271.83,864.217 L1259.94,863.949 L1232.18,839.802 L1236.09,835.602 L1232.06,826.771 L1236.3,811.205 L1250.03,812.419 L1261.68,794.843 L1268.3,797.582 L1265.5,785.71 L1250.89,786.156 L1257.02,772.875 L1267.99,772.339 L1274.67,764.399 L1284.51,769.06 L1290.3,766.709 L1274.44,742.927 L1224.33,741.765 L1185.37,695.846 L1187.7,673.072 L1199.52,668.035 L1203.85,658.177"/>
   <path id="isogo" class="st0" d="M1682.93,1110.82 L1677.75,1126.7 L1695.57,1148.4 L1714.36,1162.09 L1745.08,1159.01 L1750.51,1183.55 L1757.06,1185.13 L1768.49,1205.74 L1748.5,1213.15 L1749.99,1216.65 L1748.06,1213.32 L1729.94,1220.15 L1735.57,1224.23 L1729.24,1220.41 L1722.04,1223.14 L1726.92,1226.85 L1714.11,1226.12 L1719.03,1229.85 L1709.81,1227.85 L1688.03,1194.62 L1698.16,1214.16 L1693.61,1212.23 L1675.48,1221.34 L1694.93,1247.7 L1765.93,1235.1 L1783.41,1244.42 L1787.98,1260.7 L1709.83,1278.2 L1712.71,1275.35 L1664.74,1268.9 L1640.38,1304.08 L1645.33,1306.42 L1645.19,1306.64 L1639.94,1304.87 L1639.14,1308.76 L1654.63,1331.79 L1688.66,1317.88 L1685.16,1312.23 L1700.56,1305.07 L1686.36,1312.32 L1689.23,1317.63 L1698.2,1313.76 L1705.61,1321.67 L1729.47,1310.72 L1714.33,1318.3 L1724.27,1329.04 L1737.46,1323.35 L1724.76,1329.8 L1731.06,1340.99 L1743.22,1335.6 L1744.06,1336.92 L1673.65,1366.69 L1685.52,1380.8 L1681.59,1391.03 L1648.9,1401.31 L1641.94,1408.44 L1633.69,1435.38 L1638.23,1450.44 L1621.17,1458.48 L1610.28,1485.19 L1592.43,1492.15 L1587.52,1505.21 L1581.29,1500.53 L1581.46,1511.51 L1570.07,1513.89 L1566.83,1505.84 L1562.42,1508.3 L1564.78,1525.38 L1547.77,1524.52 L1543.73,1529.24 L1548.44,1534.07 L1531.41,1548.97 L1517.35,1549.78 L1508.05,1561.91 L1488.52,1555.69 L1434.38,1565.12 L1430.51,1555.35 L1448.37,1546.23 L1453.73,1529.68 L1452.93,1520.82 L1445.06,1514.3 L1445.85,1505.57 L1458.16,1502.35 L1478.79,1483.46 L1458.95,1453.56 L1441.56,1446.36 L1429.9,1423.39 L1436.85,1415.6 L1452.86,1415.47 L1448.13,1396.67 L1432.42,1391.92 L1423.41,1372.64 L1426.73,1362.1 L1449.36,1367.66 L1451.62,1373.48 L1457.52,1365.11 L1475.98,1361.14 L1485.49,1353.6 L1508.07,1355.42 L1510.23,1366.74 L1540.14,1364.41 L1539.61,1357.67 L1522.35,1338.26 L1523.16,1326.55 L1516.97,1322.22 L1524.52,1318.89 L1527.29,1310.53 L1519.23,1308.59 L1522.1,1304.98 L1514.1,1305.61 L1517.67,1302.89 L1509.3,1292.45 L1500.22,1297.6 L1495.7,1286.24 L1484.9,1279.1 L1483.06,1270.06 L1514.33,1262.6 L1521.43,1251.97 L1547.89,1263.81 L1556.97,1256.7 L1556.41,1241.23 L1546.37,1238.37 L1540.11,1225.88 L1543.4,1216.92 L1537.79,1216.14 L1535.64,1202.48 L1545.09,1178.03 L1547.26,1152.75 L1564.55,1142.53 L1569.15,1129.77 L1583.47,1138.22 L1603.98,1118.6 L1629.74,1116.96 L1628.51,1110.38 L1649,1111.74 L1672.75,1102.17 L1682.93,1110.82"/>
   <path id="kanazawa" class="st0" d="M1810.93,1349.32 L1837.03,1359.21 L1813.05,1380.05 L1823.49,1388.49 L1813.07,1397.14 L1802.41,1395.54 L1800.7,1399.65 L1806.58,1405.04 L1790.96,1418.14 L1778.9,1408.54 L1773.95,1412.65 L1820.01,1449.91 L1839.5,1441.12 L1869.15,1415.26 L1842.43,1439.2 L1857.94,1452.4 L1858,1491.35 L1822.65,1492.13 L1822.91,1533.83 L1847.36,1572.93 L1860.62,1574.04 L1860.78,1647.3 L1764.36,1666.91 L1752.62,1656.8 L1740.78,1657.68 L1724.42,1669.45 L1714.06,1685.01 L1724.98,1691.2 L1724.02,1696.7 L1735.01,1695.15 L1726.82,1697.65 L1722.51,1696.81 L1721.32,1706.02 L1736.98,1702.38 L1737.04,1695.55 L1737.24,1703.17 L1719.8,1706.8 L1685.78,1726.5 L1648.14,1707.55 L1641.36,1710.62 L1643.53,1714.64 L1641.09,1711.64 L1639.19,1713.61 L1648.95,1722.54 L1700.11,1753.34 L1693.87,1765.24 L1687.66,1764.71 L1654.81,1794.77 L1625.41,1798.53 L1614.3,1804.85 L1582.37,1805.46 L1562.85,1821.63 L1559.6,1833.85 L1526.48,1819.95 L1521.61,1804.58 L1492.28,1813.25 L1475.86,1809.01 L1476.21,1799.38 L1470.16,1790.84 L1456.45,1783.7 L1455.62,1761.56 L1443.29,1753.23 L1441.85,1738.83 L1434.51,1735.7 L1436.63,1731.19 L1428.24,1722.65 L1432.9,1708.88 L1431.47,1690.96 L1429.22,1682.45 L1422.85,1681.63 L1423.07,1669.06 L1431.58,1644.96 L1426.3,1619.98 L1428.72,1597.3 L1440.17,1590.22 L1444.58,1578.57 L1438.09,1566.16 L1444.79,1560.33 L1465.36,1562.21 L1488.52,1555.69 L1508.05,1561.91 L1517.35,1549.78 L1531.41,1548.97 L1548.44,1534.07 L1543.73,1529.24 L1547.77,1524.52 L1564.78,1525.38 L1562.42,1508.3 L1566.83,1505.84 L1570.07,1513.89 L1581.46,1511.51 L1581.29,1500.53 L1587.52,1505.21 L1592.43,1492.15 L1610.28,1485.19 L1621.17,1458.48 L1638.23,1450.44 L1633.69,1435.38 L1637.2,1417 L1648.9,1401.31 L1680.14,1392.61 L1685.52,1380.8 L1704.79,1385.71 L1702.63,1391.12 L1706.51,1392.15 L1708.65,1386.64 L1714.11,1388 L1769.2,1360.8 L1789.34,1339.24 L1810.93,1349.32"/>
   <path id="kouhoku" class="st0" d="M1681.67,248.593 L1692.58,254.855 L1725.22,257.676 L1746.2,269.298 L1771.93,275.541 L1806.16,266.465 L1830.76,284.969 L1870.08,300.821 L1844.53,375.111 L1843.22,389.676 L1851.84,399.321 L1819.2,409.548 L1808.39,428.178 L1795.25,435.013 L1803.24,448.571 L1798.36,466.407 L1800.43,497.887 L1777.31,499.244 L1773.52,507.673 L1758.68,502.625 L1760.89,515.509 L1770.28,518.296 L1768.66,528.756 L1757.33,530.638 L1742.93,544.899 L1724.31,547.28 L1736.29,578.006 L1751.15,592.522 L1750.68,603.307 L1743.8,609.648 L1732.04,641.732 L1732.2,677.939 L1722.71,689.208 L1708.34,690.372 L1695.51,685.041 L1690.86,694.85 L1674.24,695.049 L1684.73,702.067 L1660.18,712.691 L1634.68,700.029 L1625.98,673.798 L1584.24,695.899 L1573.21,681.344 L1558.52,676.231 L1562.91,672.022 L1563.05,659.038 L1556.87,649.925 L1551.3,655.446 L1540.67,649.869 L1539.7,655.538 L1521.17,658.836 L1503.78,650.482 L1477.77,647.42 L1467.94,631.409 L1460.75,639.251 L1450.41,636.621 L1440.58,621.858 L1391.15,618.849 L1388.99,611.956 L1400.16,600.691 L1413.78,597.917 L1417.24,592.552 L1395.82,573.319 L1405.99,559.008 L1408.8,564.495 L1420.69,567.497 L1449.89,558.673 L1463.33,542.657 L1478.56,534.841 L1514.03,542.193 L1518.21,538.804 L1512.79,524.568 L1522.02,511.414 L1519.14,485.257 L1504.38,464.795 L1493.91,463.697 L1494.4,438.086 L1474.91,435.509 L1467.21,414.885 L1476.48,413.741 L1490.86,385.094 L1513.86,385.728 L1517.57,352.446 L1533.64,341.061 L1531.61,326.146 L1542.41,313.407 L1566.81,315.487 L1567.97,281.209 L1582.13,275.995 L1583.9,259.024 L1610.98,263.667 L1628.74,253.131 L1655.78,257.088 L1667.19,249.3 L1681.67,248.593"/>
   <path id="totsuka" class="st0" d="M1066.48,975.018 L1083.89,979.773 L1097.43,1004.93 L1107.61,1005.84 L1112.9,997.298 L1125.43,997.937 L1133.42,991.071 L1148.28,994.438 L1157.65,977.807 L1175.31,978.924 L1177.09,991.619 L1193.34,996.168 L1194.42,1007.53 L1218.91,1006.11 L1234.12,1016.04 L1237.17,1038.83 L1259.25,1054.48 L1322.02,1039.5 L1337.11,1080.17 L1342.85,1083.54 L1341.95,1106.87 L1349.49,1123.28 L1343.75,1127.26 L1334.53,1124.8 L1344.68,1120.52 L1341.85,1115.43 L1335.79,1121.84 L1336.13,1114.3 L1309.59,1115.27 L1313.31,1128.79 L1331.32,1140.88 L1315.75,1157.58 L1301.4,1152.31 L1299.28,1157.35 L1306.3,1159.51 L1303.96,1164.8 L1309.96,1172.39 L1286.74,1168.73 L1268.77,1156.8 L1240.12,1156.86 L1224.93,1150.83 L1234.76,1164.39 L1236.76,1178.11 L1207.49,1185.9 L1206.69,1208.61 L1216.68,1223.38 L1226.15,1225.39 L1221.57,1251.5 L1230.16,1281.17 L1251.31,1297.17 L1238.15,1314.04 L1236.99,1332.54 L1221.08,1342.84 L1202.23,1379.46 L1178.7,1396.38 L1167.93,1421.45 L1125.83,1412.42 L1092.05,1386.9 L1071.1,1385.91 L1072.81,1412.17 L1066.07,1426.03 L1030.09,1410.74 L1010.58,1410.53 L1005.61,1400.18 L990.404,1399.55 L985.037,1406.5 L990.416,1413.77 L987.61,1416.69 L1004.7,1430.79 L1011.45,1445.03 L985.198,1438.17 L969.346,1448.97 L987.723,1472.95 L981.096,1480.85 L989.672,1503.79 L984.752,1509.23 L984.654,1522.87 L953.618,1517.18 L896.466,1487.36 L882.401,1484.96 L868.942,1509.23 L864.206,1507.64 L858.694,1517.67 L853.127,1518.42 L836.767,1547.31 L776.484,1536.46 L781.137,1513.7 L795.748,1490.88 L798.779,1462.22 L821.647,1446.05 L825.746,1437.83 L815.998,1411.65 L774.24,1388.16 L774.694,1375.21 L766.277,1359.34 L764.811,1344.38 L797.03,1352.82 L801.134,1346.21 L825.15,1335.86 L822.585,1330.2 L837.334,1315.42 L843.7,1300.79 L853.653,1314.52 L865.56,1320.37 L880.699,1321.87 L900.293,1315.57 L911.144,1301.4 L910.199,1284.16 L924.499,1277.14 L928.155,1262.1 L939.088,1248.43 L988.152,1245.81 L994.132,1234.31 L991.449,1200.56 L1010.84,1175.67 L1019.37,1171.63 L1020.01,1161.02 L1030.63,1151.35 L1032.72,1141.12 L1041.26,1138.88 L1043.94,1101.22 L1053.01,1093.56 L1043.47,1063.02 L1035.23,1060.78 L1029.19,1040.21 L1032.1,1032.06 L1054.18,1025.71 L1060.83,1013.83 L1051.35,1001.16 L1031.06,993.703 L1043.08,979.322 L1059.73,977.607 L1061.9,972.092 L1066.48,975.018"/>
   <path id="kounan" class="st0" d="M1345.02,1136.94 L1354.05,1137.26 L1365.33,1150.63 L1366.3,1171.88 L1382.59,1198.65 L1407.84,1206.43 L1405.8,1211.98 L1413.07,1215.96 L1420.05,1218.26 L1430.64,1203.95 L1444.91,1198.79 L1456.51,1181.4 L1470.69,1184.1 L1473.23,1174.82 L1490.37,1176.65 L1495.81,1181.57 L1483.94,1192.73 L1486.19,1207.07 L1503.89,1208.24 L1527.63,1227.83 L1540.12,1225.55 L1546.37,1238.37 L1556.41,1241.23 L1556.97,1256.7 L1548.83,1263.64 L1521.43,1251.97 L1514.33,1262.6 L1483.06,1270.06 L1484.9,1279.1 L1495.7,1286.24 L1500.22,1297.6 L1509.3,1292.45 L1517.67,1302.89 L1514.1,1305.61 L1522.1,1304.98 L1519.23,1308.59 L1527.29,1310.53 L1524.52,1318.89 L1516.97,1322.22 L1523.16,1326.55 L1522.35,1338.26 L1539.61,1357.67 L1540.14,1364.41 L1510.23,1366.74 L1508.07,1355.42 L1485.49,1353.6 L1475.98,1361.14 L1457.52,1365.11 L1451.62,1373.48 L1449.36,1367.66 L1426.73,1362.1 L1423.41,1372.64 L1432.42,1391.92 L1448.13,1396.67 L1452.86,1415.47 L1436.85,1415.6 L1429.9,1423.39 L1441.56,1446.36 L1458.95,1453.56 L1478.79,1483.46 L1458.16,1502.35 L1445.85,1505.57 L1444.26,1514.77 L1399.07,1501.7 L1390.3,1493.34 L1378.77,1494.63 L1360.63,1479.98 L1363.82,1474.48 L1358.72,1471.13 L1346.35,1475.01 L1344.2,1481.54 L1334.74,1485.98 L1331.48,1473.81 L1323.95,1475.12 L1324.37,1461.89 L1298.25,1450.67 L1287.77,1454.35 L1265.72,1448.8 L1256.28,1465.42 L1245.12,1470.02 L1241.22,1462.17 L1244.69,1461.06 L1245.69,1438.46 L1240.45,1433.16 L1249.74,1407.5 L1241.89,1396.79 L1228.08,1403.46 L1231.13,1394.67 L1223.95,1390.92 L1226.49,1380.86 L1215.06,1374.96 L1202.23,1379.46 L1221.08,1342.84 L1236.99,1332.54 L1238.15,1314.04 L1251.31,1297.17 L1230.16,1281.17 L1221.57,1251.5 L1226.15,1225.39 L1216.68,1223.38 L1206.69,1208.61 L1207.49,1185.9 L1236.76,1178.11 L1234.76,1164.39 L1224.93,1150.83 L1240.12,1156.86 L1268.77,1156.8 L1286.74,1168.73 L1309.96,1172.39 L1303.96,1164.8 L1306.3,1159.51 L1299.28,1157.35 L1301.4,1152.31 L1315.75,1157.58 L1331.03,1140.27 L1345.02,1136.94"/>
   <path id="asahi" class="st0" d="M883.887,587.981 L894.103,593.853 L902.311,608.429 L904.1,633.032 L953.154,653.494 L992.708,633.159 L1007.92,638.253 L1024.06,617.765 L1056.18,626.266 L1072.31,617.845 L1063.61,624.537 L1064.44,641.74 L1079.96,647.608 L1119.96,642.145 L1137.19,661.362 L1159.25,651.477 L1198.69,661.693 L1203.85,658.177 L1199.52,668.035 L1187.7,673.072 L1185.37,695.846 L1224.33,741.765 L1274.44,742.927 L1290.3,766.709 L1284.51,769.06 L1274.67,764.399 L1267.99,772.339 L1258.62,771.172 L1250.89,786.156 L1265.5,785.71 L1267.94,798.379 L1261.68,794.843 L1250.03,812.419 L1236.3,811.205 L1232.06,826.771 L1236.09,835.602 L1232.22,839.889 L1255.44,861.011 L1271.83,864.217 L1287.76,877.339 L1298.97,872.858 L1302.41,898.153 L1285.42,906.678 L1286.77,927.028 L1267.31,928.363 L1256.13,941.084 L1224.36,936.542 L1192.72,938.848 L1176.95,950.284 L1157.98,953.793 L1151.71,966.309 L1163.03,978.613 L1153.7,979.802 L1148.28,994.438 L1133.42,991.071 L1125.43,997.937 L1112.9,997.298 L1107.61,1005.84 L1097.43,1004.93 L1083.89,979.773 L1048.18,965.908 L1044.08,971.558 L1022.18,964.419 L1017.2,975.935 L984.999,966.669 L968.927,968.695 L948.401,987.757 L934.363,988.793 L921.577,957.913 L909.585,944.512 L916.59,930.214 L916.55,915.625 L896.945,893.382 L899.588,854.389 L878.026,833.379 L872.784,802.9 L880.656,779.676 L859.526,776.644 L849.873,757.458 L816.33,736.695 L792.09,707.646 L794.865,691.443 L787.128,659.713 L805.596,658.36 L803.431,651.391 L785.3,651.691 L785.18,646.024 L799.353,610.868 L822.449,597.084 L855.841,594.017 L858.747,588.419 L883.887,587.981"/>
   <path id="midori" class="st0" d="M873.688,425.188 L916.559,422.22 L944.074,454.747 L987.339,452.617 L1007.13,471.457 L1016.85,459.219 L1018.5,443.805 L1056.23,429.107 L1079.28,413.365 L1108.25,422.14 L1127.87,414.489 L1150.34,440.843 L1152.4,463.805 L1165.28,481.924 L1164.42,499.074 L1180.44,522.833 L1190.85,527.19 L1194.02,535.961 L1188.94,551.372 L1205.04,575.297 L1239.26,577.494 L1273.28,563.782 L1293.73,565.106 L1307.05,560.68 L1318.62,549.441 L1327.43,545.862 L1329.83,551.987 L1343.03,543.444 L1372.72,557.555 L1406.53,562.219 L1395.82,573.319 L1417.24,592.552 L1388.99,611.956 L1387.2,624.092 L1330.78,619.451 L1311.52,650.53 L1294.11,663.96 L1278.54,669.079 L1269.38,689.306 L1252.88,695.494 L1240.49,672.609 L1226.41,663.005 L1213.89,665.266 L1206.34,657.282 L1198.69,661.693 L1159.25,651.477 L1137.19,661.362 L1122.1,642.455 L1080.59,647.721 L1065.18,642.966 L1063.61,624.537 L1072.31,617.845 L1056.18,626.266 L1024.06,617.765 L1007.92,638.253 L992.708,633.159 L954.451,653.542 L905.107,633.968 L902.311,608.429 L894.103,593.853 L883.887,587.981 L858.747,588.419 L855.841,594.017 L823.373,596.875 L806.957,603.394 L792.297,629.006 L745.939,611.507 L720.027,573.217 L741.442,552.06 L760.023,524.052 L779.695,519.126 L775.302,504.691 L786.551,492.586 L780.6,477.489 L788.637,468.723 L775.887,448.152 L782.417,420.28 L834.011,399.238 L873.688,425.188"/>
   <path id="seya" class="st0" d="M790.568,632.499 L785.3,651.691 L800.162,650.263 L805.596,658.36 L787.128,659.713 L794.865,691.443 L793.18,712.826 L820.637,740.248 L849.873,757.458 L859.526,776.644 L880.656,779.676 L872.784,802.9 L878.026,833.379 L899.588,854.389 L896.945,893.382 L916.55,915.625 L916.59,930.214 L909.585,944.512 L921.577,957.913 L937.491,1000.98 L937.518,1009.97 L924.373,1019.17 L939.215,1027.27 L934.952,1035.55 L931.058,1040.1 L923.881,1037.54 L900.156,1043.62 L890.695,1058.4 L876.488,1057.4 L874.445,1052.3 L835.439,1036.07 L831.72,1004.72 L809.607,1007.83 L795.085,1003.02 L786.893,1008.3 L768.609,1008.73 L765.953,975.374 L743.43,971.122 L737.822,962.817 L730.826,962.746 L702.447,918.44 L688.448,881.042 L704.402,836.461 L686.977,820.934 L676.123,783.044 L681.362,764.172 L672,735.727 L681.963,715.236 L680.77,695.401 L668.574,680.002 L645.367,668.836 L643.35,658.729 L655.068,647.501 L661.396,630.406 L716.289,636.869 L770.044,619.794 L792.297,629.006 L790.568,632.499"/>
   <path id="izumi" class="st0" d="M1044.08,971.558 L1048.18,965.908 L1062.06,972.938 L1059.73,977.607 L1035.94,984.132 L1030.34,996.783 L1051.35,1001.16 L1060.87,1014.09 L1054.18,1025.71 L1032.1,1032.06 L1029.19,1040.21 L1035.23,1060.78 L1043.47,1063.02 L1053.01,1093.56 L1043.94,1101.22 L1041.26,1138.88 L1032.72,1141.12 L1030.63,1151.35 L1020.01,1161.02 L1019.37,1171.63 L1010.84,1175.67 L991.449,1200.56 L994.132,1234.31 L988.152,1245.81 L939.088,1248.43 L928.155,1262.1 L924.499,1277.14 L910.199,1284.16 L908.205,1306.79 L891.562,1319.25 L862.224,1319.33 L843.7,1300.79 L837.334,1315.42 L822.585,1330.2 L825.15,1335.86 L801.134,1346.21 L797.03,1352.82 L764.811,1344.38 L766.277,1359.34 L760.417,1350.66 L747.797,1346.66 L741.612,1335.16 L730.346,1329.64 L724.746,1287.27 L706.4,1266.86 L716.399,1249.12 L711.897,1217.6 L713.843,1187.58 L726.22,1172.63 L726.778,1152.92 L718.474,1142.59 L696.831,1136.22 L693.232,1129.19 L701.053,1085.74 L693.538,1075.26 L695.82,1052.54 L706.661,1044.95 L709.899,1027.57 L722.32,1005.05 L733.093,995.9 L743.43,971.122 L765.953,975.374 L768.609,1008.73 L786.893,1008.3 L795.085,1003.02 L809.607,1007.83 L831.72,1004.72 L835.439,1036.07 L874.445,1052.3 L876.488,1057.4 L888.66,1058.72 L900.156,1043.62 L923.881,1037.54 L931.058,1040.1 L939.215,1027.27 L924.373,1019.17 L937.81,1009.5 L932.07,989.378 L948.401,987.757 L967.178,969.371 L984.999,966.669 L1017.2,975.935 L1022.5,964.369 L1044.08,971.558"/>
   <path id="aoba" class="st0" d="M1065.76,60.1856 L1092.63,66.7404 L1122.95,64.4217 L1136.62,75.6315 L1159.14,76.1879 L1179.74,86.0403 L1199.93,83.9628 L1220.17,91.8398 L1229.31,106.28 L1258.27,121.788 L1265.06,138.132 L1279.96,146.229 L1291.54,172.018 L1290.78,184.425 L1296.09,192.641 L1273.56,223.31 L1289.65,224.558 L1260.64,246.159 L1255.66,261.207 L1272.36,272.615 L1266.49,280.856 L1266.47,298.249 L1257.08,313.351 L1239.26,314.367 L1231.62,307.8 L1195.87,340.372 L1198.31,372.562 L1189.57,378.5 L1196.48,386.231 L1193.63,393.948 L1182.61,396.373 L1182.11,401.218 L1174.3,394.885 L1162.72,407.495 L1148.66,406.235 L1108.25,422.14 L1079.28,413.365 L1056.23,429.107 L1018.5,443.805 L1016.85,459.219 L1007.13,471.457 L987.339,452.617 L944.074,454.747 L916.559,422.22 L871.903,424.732 L835.313,399.349 L788.974,419.114 L767.936,416.653 L770.405,403.427 L749.591,392.263 L741.321,371.977 L744.811,354.156 L755.577,337.814 L751.375,291.524 L737.487,269.03 L725.837,262.357 L716.941,248.979 L707.888,267.316 L677.38,261.99 L672.515,249.687 L664.839,245.257 L673.617,231.55 L670.601,222.422 L674.388,203.574 L700.43,204.266 L715.798,191.192 L752.761,190.105 L779.512,207.854 L777.475,217.094 L785.852,220.383 L795.963,251.903 L809.13,256.118 L832.195,234.379 L842.318,235.744 L852.625,215.736 L871.229,211.062 L869.793,198.966 L906.866,191.618 L912.558,177.906 L909.676,171.02 L914.094,169.189 L910.43,164.872 L919.038,164.981 L925.445,170.152 L924.497,187.911 L948.626,205.572 L947.028,219.548 L955.308,219.147 L967.039,208.838 L1003.97,194.787 L1019.46,179.939 L1011.97,172.395 L1026.04,160.618 L1023.69,145 L1035.88,145.257 L1036.05,132.727 L1050.77,122.913 L1033.11,93.7818 L1045.63,88.8908 L1043.56,74.9132 L1030.3,61.4075 L1065.76,60.1856"/>
   <path id="tsuzuki" class="st0" d="M1296.09,192.641 L1305.65,195.783 L1321.01,191.579 L1352.61,211.22 L1377.51,206.995 L1472.05,224.291 L1497.03,216.879 L1505.4,230.828 L1572.7,237.326 L1585.5,259.118 L1582.13,275.995 L1567.97,281.209 L1566.81,315.487 L1542.41,313.407 L1531.61,326.146 L1533.64,341.061 L1517.57,352.446 L1513.86,385.728 L1490.86,385.094 L1476.48,413.741 L1467.21,414.885 L1474.91,435.509 L1494.4,438.086 L1493.91,463.697 L1504.38,464.795 L1521.18,490.234 L1523,505.041 L1512.8,524.08 L1518.21,538.804 L1514.03,542.193 L1478.56,534.841 L1463.33,542.657 L1449.89,558.673 L1420.69,567.497 L1408.8,564.495 L1405.99,559.008 L1406.53,562.219 L1372.72,557.555 L1341,543.284 L1329.83,551.987 L1327.43,545.862 L1318.62,549.441 L1301.02,563.362 L1273.28,563.782 L1240.45,577.282 L1205.04,575.297 L1198.91,568.973 L1188.94,551.372 L1194.02,535.961 L1190.85,527.19 L1180.44,522.833 L1165.76,502.366 L1165.28,481.924 L1152.4,463.805 L1151.29,442.975 L1127.87,414.489 L1148.66,406.235 L1162.72,407.495 L1174.3,394.885 L1182.11,401.218 L1182.61,396.373 L1193.63,393.948 L1196.48,386.231 L1189.57,378.5 L1198.31,372.562 L1195.87,340.372 L1231.62,307.8 L1239.26,314.367 L1257.08,313.351 L1266.47,298.249 L1266.49,280.856 L1272.36,272.615 L1255.66,261.207 L1260.64,246.159 L1289.65,224.558 L1273.56,223.31 L1296.09,192.641"/>
   <path id="sakae" class="st0" d="M969.346,1448.97 L985.198,1438.17 L1011.45,1445.03 L1004.7,1430.79 L987.61,1416.69 L990.416,1413.77 L985.037,1406.5 L990.404,1399.55 L1005.61,1400.18 L1010.58,1410.53 L1030.09,1410.74 L1066.07,1426.03 L1072.81,1412.17 L1071.1,1385.91 L1092.05,1386.9 L1125.83,1412.42 L1156.09,1416.67 L1164.91,1422.69 L1182.03,1392.87 L1215.06,1374.96 L1226.49,1380.86 L1223.95,1390.92 L1231.13,1394.67 L1228.08,1403.46 L1241.89,1396.79 L1250.05,1408.17 L1240.45,1433.16 L1245.69,1438.46 L1244.69,1461.06 L1241.22,1462.17 L1245.12,1470.02 L1256.28,1465.42 L1265.72,1448.8 L1287.77,1454.35 L1298.25,1450.67 L1324.37,1461.89 L1323.95,1475.12 L1331.48,1473.81 L1334.74,1485.98 L1344.2,1481.54 L1346.35,1475.01 L1358.72,1471.13 L1363.82,1474.48 L1360.63,1479.98 L1378.77,1494.63 L1390.3,1493.34 L1399.07,1501.7 L1432.37,1508.13 L1452.93,1520.82 L1448.37,1546.23 L1430.51,1555.35 L1444.58,1578.57 L1440.17,1590.22 L1428.72,1597.3 L1426.3,1619.98 L1431.58,1644.96 L1422.85,1681.63 L1398.03,1683.21 L1384.16,1691.93 L1368.97,1683.16 L1347.28,1685.74 L1332.62,1679.12 L1328.28,1644.62 L1309.07,1613.63 L1253.67,1620.39 L1231.24,1614.48 L1208.21,1583.84 L1173.23,1561.72 L1165.53,1545.92 L1176.54,1530.92 L1160.58,1515.42 L1145.4,1514.84 L1132.81,1551.73 L1103.52,1550.56 L1095.77,1565.34 L1059.94,1569.9 L1061.57,1552.03 L1052.4,1543.12 L1043.14,1553.07 L1029.22,1553.12 L1001.88,1522.7 L984.654,1522.87 L984.752,1509.23 L989.672,1503.79 L981.096,1480.85 L987.723,1472.95 L969.346,1448.97"/>
  </g>

</svg>
